# xmcd CD database file
#
# Track frame offsets:
#	150
#	81492
#	123920
#	137667
#	144647
#	166027
#	199025
#	211142
#	219517
#	222102
#	241215
#	268922
#	306117
#
# Disc length: 4440 seconds
#
# Revision: 0
# Processed by: cddbd v1.5PL3 Copyright (c) Steve Scherf et al.
# Submitted via: CDex 1.51
#
DISCID=bf11560d
DTITLE=Tokyo Disneyland - 20th Anniversary BEST ALBUM Disc1
DYEAR=2004
DGENRE=Disney
TTITLE0=東京ディズニーランド　シンデレラブレーション ライツ・オブ・ロマンス
TTITLE1=東京ディズニーランド 20ｔｈ アニバーサリー ディズニー・ドリームス・オン・パレード[エディット・ヴァージョン]
TTITLE2=東京ディズニーランド 20周年記念キャッスルショー ミッキーのギフト・オブ・ドリームス[エディット・ヴァージョン] OPENING Join the Party
TTITLE3=ミッキーのギフト・オブ・ドリームス[エディット・ヴァージョン] BAG INTRODUCTION Bag of Dreams (Theme)
TTITLE4=ミッキーのギフト・オブ・ドリームス[エディット・ヴァージョン] GOOFY'S DREAM - JUNGLE ADVENTURE (MEDLEY)
TTITLE5=ミッキーのギフト・オブ・ドリームス[エディット・ヴァージョン] MINNE'S DREAM OF ROMANCE (MEDLEY)
TTITLE6=ミッキーのギフト・オブ・ドリームス[エディット・ヴァージョン] DONALD'S DREAM OF FUN AND LAUGHTER (MEDLEY)
TTITLE7=ミッキーのギフト・オブ・ドリームス[エディット・ヴァージョン] VILLAINS
TTITLE8=ミッキーのギフト・オブ・ドリームス[エディット・ヴァージョン] FINALE TRANSITION
TTITLE9=ミッキーのギフト・オブ・ドリームス[エディット・ヴァージョン] FINALE
TTITLE10=東京ディズニーランド 20周年記念 ブレイジング・リズム[エディット・ヴァージョン]　PARADE IN
TTITLE11=東京ディズニーランド 20周年記念 ブレイジング・リズム[エディット・ヴァージョン] SHOW MODE
TTITLE12=CCD
EXTD=YEAR: 2004
EXTT0=
EXTT1=
EXTT2=
EXTT3=
EXTT4=
EXTT5=
EXTT6=
EXTT7=
EXTT8=
EXTT9=
EXTT10=
EXTT11=
EXTT12=
PLAYORDER=
